<svg width="200" height="100" viewBox="0 0 200 100" fill="none" xmlns="http://www.w3.org/2000/svg">
<rect width="200" height="100" rx="10" fill="#8F002C"/>
<path d="M13.72 38.4C13.72 37.64 14.42 37.26 15.82 37.26H31.12C32.56 37.26 33.28 37.64 33.28 38.4C33.28 39.2 32.54 39.6 31.06 39.6H28.96C26.68 39.6 25.54 40.64 25.54 42.72V60.24C25.54 62.32 24.84 63.36 23.44 63.36C22.08 63.36 21.4 62.32 21.4 60.24V42.72C21.4 40.64 20.26 39.6 17.98 39.6H16C14.48 39.6 13.72 39.2 13.72 38.4ZM51.5509 46.8C52.3909 45.96 52.8109 44.9 52.8109 43.62V42.3C52.7309 41.42 52.4509 40.76 51.9709 40.32C51.4909 39.84 50.7909 39.6 49.8709 39.6H44.9509C42.6309 39.6 41.4709 40.94 41.4709 43.62V45.24C41.4709 47.92 42.6109 49.26 44.8909 49.26H46.6309C47.9509 49.26 49.0109 48.88 49.8109 48.12L51.5509 46.8ZM54.8509 63.24C53.4909 63.24 52.8109 62.38 52.8109 60.66V56.4C52.8109 56.08 52.6909 55.74 52.4509 55.38C52.2109 54.98 51.8909 54.58 51.4909 54.18L49.7509 52.74C48.7509 51.98 47.8509 51.6 47.0509 51.6H44.8909C42.6109 51.6 41.4709 52.74 41.4709 55.02V60.48C41.4709 62.32 40.7709 63.24 39.3709 63.24C37.9709 63.24 37.2709 62.26 37.2709 60.3V41.64C37.2709 38.72 38.8109 37.26 41.8909 37.26H51.8509C55.2909 37.26 57.0109 38.62 57.0109 41.34V45.3C56.8109 46.46 55.9509 47.68 54.4309 48.96C53.8309 49.44 53.5309 49.94 53.5309 50.46C53.5309 50.94 53.8109 51.44 54.3709 51.96C55.9709 53.48 56.8509 54.72 57.0109 55.68V60.54C57.0109 62.34 56.2909 63.24 54.8509 63.24ZM70.615 60.78H74.815C77.215 60.78 78.415 59.6 78.415 57.24V43.02C78.415 40.74 77.195 39.6 74.755 39.6H70.675C68.275 39.6 67.075 40.74 67.075 43.02V57.36C67.075 59.64 68.255 60.78 70.615 60.78ZM82.615 58.92C82.615 61.64 80.995 63 77.755 63H67.735C64.495 63 62.875 61.64 62.875 58.92V41.46C62.875 38.66 64.495 37.26 67.735 37.26H77.695C80.975 37.26 82.615 38.66 82.615 41.46V58.92ZM104.019 57.54C104.019 57.14 104.179 56.8 104.499 56.52C104.819 56.24 105.359 56.1 106.119 56.1C107.519 56.1 108.219 56.74 108.219 58.02V59.04C108.219 61.68 106.699 63 103.659 63H92.8591C89.9391 63 88.4791 61.58 88.4791 58.74V41.64C88.4791 38.72 89.9591 37.26 92.9191 37.26H103.659C106.699 37.26 108.219 38.58 108.219 41.22V42.12C108.219 43.56 107.519 44.28 106.119 44.28C104.719 44.28 104.019 43.82 104.019 42.9C104.019 40.7 102.799 39.6 100.359 39.6H96.2791C93.8791 39.6 92.6791 40.64 92.6791 42.72V57.72C92.6791 59.76 93.8591 60.78 96.2191 60.78H100.479C102.839 60.78 104.019 59.7 104.019 57.54ZM126.023 39.6H121.943C119.543 39.6 118.343 40.86 118.343 43.38V45.66C118.343 48.06 119.523 49.26 121.883 49.26H126.143C128.503 49.26 129.683 47.78 129.683 44.82V42.6C129.683 40.6 128.463 39.6 126.023 39.6ZM129.683 59.76V54.48C129.683 52.52 128.463 51.54 126.023 51.54H121.943C119.543 51.54 118.343 52.52 118.343 54.48V59.82C118.343 61.9 117.643 62.94 116.243 62.94C114.843 62.94 114.143 62 114.143 60.12V41.58C114.143 38.7 115.603 37.26 118.523 37.26H128.903C132.223 37.26 133.883 38.7 133.883 41.58V60.06C133.883 61.98 133.183 62.94 131.783 62.94C130.383 62.94 129.683 61.88 129.683 59.76ZM144.067 53.94V60.06C144.067 62.18 143.367 63.24 141.967 63.24C140.527 63.24 139.807 62.26 139.807 60.3L139.867 41.64C139.867 38.72 141.487 37.26 144.727 37.26H155.047C158.087 37.26 159.607 38.6 159.607 41.28V46.86C159.607 49.7 158.047 51.12 154.927 51.12H147.427C145.187 51.12 144.067 52.06 144.067 53.94ZM151.747 39.6H147.667C145.267 39.6 144.067 40.92 144.067 43.56V45.3C144.067 47.62 145.247 48.78 147.607 48.78H151.807C154.207 48.78 155.407 47.38 155.407 44.58V42.84C155.407 40.68 154.187 39.6 151.747 39.6ZM168.559 53.94V60.06C168.559 62.18 167.859 63.24 166.459 63.24C165.019 63.24 164.299 62.26 164.299 60.3L164.359 41.64C164.359 38.72 165.979 37.26 169.219 37.26H179.539C182.579 37.26 184.099 38.6 184.099 41.28V46.86C184.099 49.7 182.539 51.12 179.419 51.12H171.919C169.679 51.12 168.559 52.06 168.559 53.94ZM176.239 39.6H172.159C169.759 39.6 168.559 40.92 168.559 43.56V45.3C168.559 47.62 169.739 48.78 172.099 48.78H176.299C178.699 48.78 179.899 47.38 179.899 44.58V42.84C179.899 40.68 178.679 39.6 176.239 39.6Z" fill="white"/>
</svg>
